PathFileType	4	(X/Y/Z)	E:\Qualisys_Data\Carbon_Farble_Plate\Data\Amateur_Runner\S14\T3\S14T3V13_c3d.trc
DataRate	CameraRate	NumFrames	NumMarkers	Units	OrigDataRate	OrigDataStartFrame	OrigNumFrames
200.000000	200.000000	4	39	mm	200.000000	0	336
Frame#	Time	LSHO			RSHO			LICST			RICST			LASIS			LHEEL			RASIS			LTROC			RTROC			SACR			LTH1			LSK4			LTH2			LTH3			RHM5			LSK2			LTH4			RTH1			LTOE			RTH2			RTH3			RTH4			LLEP			RLEP			LSK1			LSK3			RSK1			LHM5			RSK2			LFT1			RSK3			RSK4			LLME			RLME			RTOE			RHEEL			RFT1			RFT2			LFT2			
		X1	Y1	Z1	X2	Y2	Z2	X3	Y3	Z3	X4	Y4	Z4	X5	Y5	Z5	X6	Y6	Z6	X7	Y7	Z7	X8	Y8	Z8	X9	Y9	Z9	X10	Y10	Z10	X11	Y11	Z11	X12	Y12	Z12	X13	Y13	Z13	X14	Y14	Z14	X15	Y15	Z15	X16	Y16	Z16	X17	Y17	Z17	X18	Y18	Z18	X19	Y19	Z19	X20	Y20	Z20	X21	Y21	Z21	X22	Y22	Z22	X23	Y23	Z23	X24	Y24	Z24	X25	Y25	Z25	X26	Y26	Z26	X27	Y27	Z27	X28	Y28	Z28	X29	Y29	Z29	X30	Y30	Z30	X31	Y31	Z31	X32	Y32	Z32	X33	Y33	Z33	X34	Y34	Z34	X35	Y35	Z35	X36	Y36	Z36	X37	Y37	Z37	X38	Y38	Z38	X39	Y39	Z39	

1	0	-2757.2099609375	1445.686645507812	-490.2636108398438	-2796.347412109375	1468.953002929688	-189.0014495849609	-2850.148193359375	1009.999084472656	-455.6364135742188	-2827.869873046875	1022.921630859375	-179.3029632568359	-2814.57177734375	957.8897094726562	-432.9170837402344	-3351.3681640625	241.761474609375	-338.5767211914062	-2803.763916015625	978.5830688476562	-200.3057250976562	-2966.264404296875	911.2565307617188	-466.2039794921875	-2932.465087890625	903.9929809570312	-135.898193359375	-2979.454833984375	1024.83984375	-322.7071533203125	-2966.741943359375	677.0557250976562	-469.248046875	-3212.173095703125	391.6958923339844	-417.76025390625	-3038.408935546875	699.8878173828125	-445.0243530273438	-2986.770751953125	582.4185180664062	-444.0737915039062	-2766.821533203125	120.9495468139648	-146.3703765869141	-3151.946533203125	468.2415466308594	-436.8095092773438	-3061.29931640625	605.7777099609375	-425.8563842773438	-2715.946044921875	744.6912231445312	-150.6135559082031	-3167.0390625	69.36902618408203	-361.4988098144531	-2785.69482421875	712.5029296875	-137.0683288574219	-2672.148193359375	657.121337890625	-176.2097320556641	-2744.348388671875	619.9249877929688	-156.9135437011719	-3058.990478515625	522.401123046875	-437.0835266113281	-2704.34912109375	567.5889282226562	-165.2733917236328	-3085.85986328125	419.3610229492188	-434.3277282714844	-3149.912841796875	339.7625732421875	-419.0143127441406	-2718.6435546875	448.9167785644531	-161.4313659667969	-3234.787353515625	88.80841827392578	-421.9358520507812	-2798.927490234375	478.1158142089844	-161.1035308837891	-3360.115966796875	213.7562103271484	-308.9176635742188	-2760.36279296875	354.7418518066406	-172.0252380371094	-2832.0693359375	388.2136840820312	-172.3166656494141	-3289.701904296875	224.8547058105469	-395.4345703125	-2870.12744140625	215.9939117431641	-187.7321472167969	-2690.586669921875	106.0809097290039	-208.5040283203125	-2928.490234375	201.3098602294922	-248.1274108886719	-2923.84423828125	168.1808776855469	-272.2991333007812	-2939.276611328125	182.0013275146484	-223.3843078613281	-3368.893310546875	211.48583984375	-361.1983032226562
2	0.005	-2740.043212890625	1449.96826171875	-488.1790466308594	-2781.815185546875	1472.286010742188	-188.5288543701172	-2833.0732421875	1014.420166015625	-455.635009765625	-2810.79150390625	1026.049560546875	-179.8458862304688	-2797.27587890625	960.9417114257812	-432.5258483886719	-3338.637939453125	250.5457000732422	-340.4831848144531	-2788.509521484375	982.052490234375	-199.8710632324219	-2949.117919921875	915.0051879882812	-465.8743286132812	-2915.52587890625	907.7072143554688	-135.508544921875	-2961.970947265625	1028.149536132812	-322.6861572265625	-2954.3369140625	681.7164916992188	-470.1139221191406	-3202.6669921875	397.6601867675781	-418.5724792480469	-3025.72802734375	705.8727416992188	-445.7328491210938	-2975.57568359375	586.984619140625	-445.4252014160156	-2731.579345703125	120.2150268554688	-146.5404815673828	-3142.23193359375	474.3334350585938	-437.2745361328125	-3049.42431640625	611.2509155273438	-425.8095092773438	-2700.3056640625	747.36767578125	-150.6926116943359	-3165.475341796875	68.65493774414062	-361.619140625	-2769.756103515625	715.4867553710938	-137.3537292480469	-2656.697998046875	659.515869140625	-176.622314453125	-2731.016357421875	622.3270263671875	-157.2219390869141	-3049.40380859375	528.564453125	-438.0101928710938	-2688.884765625	570.0916748046875	-165.6765747070312	-3076.354736328125	425.4569702148438	-435.6249084472656	-3140.40966796875	345.3588562011719	-420.9888305664062	-2698.9248046875	449.6924438476562	-160.8638458251953	-3231.476318359375	90.89704895019533	-422.139892578125	-2779.86669921875	475.1337890625	-160.6087493896484	-3348.790771484375	222.3833923339844	-309.6164855957031	-2736.8330078125	353.7341918945312	-173.6059875488281	-2810.547607421875	384.1647644042969	-171.5169067382812	-3279.6083984375	230.1165008544922	-396.9389343261719	-2840.677490234375	210.8923034667969	-189.1329956054688	-2655.5849609375	108.5350723266602	-208.3872985839844	-2907.7607421875	194.3132934570312	-247.7379608154297	-2891.47265625	159.6397705078125	-272.6888122558594	-2908.22802734375	173.0615539550781	-225.2017822265625	-3357.174560546875	221.2210388183594	-362.742919921875
3	0.01	-2723.597900390625	1454.179443359375	-486.702392578125	-2767.25927734375	1475.987548828125	-187.7648010253906	-2815.067626953125	1017.135864257812	-455.1535034179688	-2796.31494140625	1030.061767578125	-178.4675598144531	-2779.92529296875	963.5099487304688	-431.8736267089844	-3326.518798828125	259.5226440429688	-342.0745849609375	-2772.094970703125	986.0921630859376	-199.3198699951172	-2932.6484375	919.1734619140624	-466.1467590332031	-2898.8974609375	911.6589965820312	-135.355224609375	-2945.1025390625	1031.30810546875	-322.8255920410156	-2940.99267578125	685.484619140625	-470.7764587402344	-3192.60595703125	403.7610168457031	-419.4903259277344	-3012.247802734375	710.7845458984375	-445.7572326660156	-2963.99658203125	591.2279663085938	-446.0536804199219	-2698.09814453125	118.8709716796875	-146.3114013671875	-3132.38720703125	480.61279296875	-437.6467895507812	-3037.505126953125	617.1592407226562	-426.3185119628906	-2683.920166015625	749.6093139648438	-150.9057769775391	-3163.770263671875	66.6676254272461	-361.9369506835938	-2754.346435546875	718.1826171875	-137.6815032958984	-2641.961669921875	661.4898681640625	-176.9275817871094	-2715.513671875	625.009765625	-157.5001831054688	-3038.9814453125	534.2371826171875	-438.5460205078125	-2672.958984375	571.6891479492188	-165.9483947753906	-3066.7138671875	432.078125	-437.1102600097656	-3130.661865234375	351.55810546875	-424.197998046875	-2680.064453125	450.6270751953125	-160.8039398193359	-3227.004638671875	93.76428985595705	-423.3324584960938	-2763.2431640625	473.5968017578125	-161.2508239746094	-3336.903564453125	231.9924621582031	-311.1791076660156	-2713.79150390625	353.3154602050781	-173.3153533935547	-2788.48876953125	379.8455505371094	-171.8077087402344	-3270.298828125	236.1355895996094	-399.3204956054688	-2810.7763671875	205.0922393798828	-189.3751068115234	-2620.66552734375	112.5516052246094	-207.9784851074219	-2875.135986328125	183.4613189697266	-246.883056640625	-2858.2216796875	151.4852600097656	-273.1341247558594	-2875.9921875	163.9715270996094	-224.1349487304688	-3349.459228515625	234.3884735107422	-364.2363586425781
4	0.015	-2706.162841796875	1457.73095703125	-484.9291687011719	-2752.999267578125	1478.615844726562	-186.9770660400391	-2797.41650390625	1020.252563476562	-454.6112060546875	-2780.4111328125	1032.687133789062	-177.5942077636719	-2763.130615234375	966.607421875	-431.2989196777344	-3313.103515625	268.1087646484375	-344.3464050292969	-2754.664794921875	989.6729736328124	-199.1536560058594	-2916.1484375	922.7127075195312	-466.343994140625	-2881.59423828125	914.6805419921876	-135.0023345947266	-2927.72998046875	1033.98291015625	-322.8006896972656	-2928.254150390625	690.2805786132812	-471.6331787109375	-3182.4970703125	409.4638061523438	-420.1571044921875	-2998.683837890625	716.1708374023438	-445.5109252929688	-2952.322998046875	596.251953125	-447.8549194335938	-2663.561279296875	119.1675262451172	-146.0790405273438	-3122.42138671875	486.5953979492188	-437.6423034667969	-3025.345947265625	622.4895629882812	-426.6224365234375	-2668.7509765625	751.0004272460938	-150.8182067871094	-3160.3798828125	64.53335571289062	-362.31103515625	-2739.7255859375	720.0984497070312	-138.2626800537109	-2627.486572265625	662.12353515625	-177.3293609619141	-2699.99658203125	627.4376831054688	-158.2472534179688	-3028.223388671875	539.6663818359375	-438.90576171875	-2659.0908203125	572.9965209960938	-166.1227264404297	-3056.652587890625	437.8397827148438	-438.447021484375	-3119.802490234375	357.7582702636719	-425.1926879882812	-2661.84423828125	451.4490966796875	-161.4551239013672	-3222.65234375	95.54457092285156	-423.9321899414062	-2745.9541015625	470.1568603515625	-160.9200286865234	-3325.13427734375	242.6217498779297	-312.6087951660156	-2690.6875	353.0541076660156	-172.9594879150391	-2766.99365234375	375.8788452148438	-172.071044921875	-3258.91015625	241.3757629394531	-400.9116516113281	-2781.042236328125	199.4980163574219	-189.923583984375	-2585.379638671875	116.9687576293945	-207.1573944091797	-2840.8837890625	175.2074737548828	-247.9178314208984	-2825.44873046875	143.4848785400391	-273.3570251464844	-2843.29736328125	155.0622100830078	-224.2921142578125	-3337.21435546875	243.6202392578125	-365.9853210449219
